<svg width="22" height="22" viewBox="0 0 22 22" fill="none" xmlns="http://www.w3.org/2000/svg">
<g clip-path="url(#clip0_11079_2)">
<path fill-rule="evenodd" clip-rule="evenodd" d="M10.9998 6.41675C9.78426 6.41675 8.61847 6.89963 7.75893 7.75918C6.89939 8.61872 6.4165 9.78451 6.4165 11.0001C6.4165 12.2157 6.89939 13.3814 7.75893 14.241C8.61847 15.1005 9.78426 15.5834 10.9998 15.5834C12.2154 15.5834 13.3812 15.1005 14.2407 14.241C15.1003 13.3814 15.5832 12.2157 15.5832 11.0001C15.5832 9.78451 15.1003 8.61872 14.2407 7.75918C13.3812 6.89963 12.2154 6.41675 10.9998 6.41675ZM8.24984 11.0001C8.24984 11.7294 8.53957 12.4289 9.05529 12.9446C9.57102 13.4604 10.2705 13.7501 10.9998 13.7501C11.7292 13.7501 12.4287 13.4604 12.9444 12.9446C13.4601 12.4289 13.7498 11.7294 13.7498 11.0001C13.7498 10.2707 13.4601 9.57126 12.9444 9.05554C12.4287 8.53981 11.7292 8.25008 10.9998 8.25008C10.2705 8.25008 9.57102 8.53981 9.05529 9.05554C8.53957 9.57126 8.24984 10.2707 8.24984 11.0001Z" fill="black"/>
<path d="M16.4997 4.5835C16.2566 4.5835 16.0234 4.68007 15.8515 4.85198C15.6796 5.02389 15.583 5.25705 15.583 5.50016C15.583 5.74328 15.6796 5.97644 15.8515 6.14834C16.0234 6.32025 16.2566 6.41683 16.4997 6.41683C16.7428 6.41683 16.9759 6.32025 17.1479 6.14834C17.3198 5.97644 17.4163 5.74328 17.4163 5.50016C17.4163 5.25705 17.3198 5.02389 17.1479 4.85198C16.9759 4.68007 16.7428 4.5835 16.4997 4.5835Z" fill="black"/>
<path fill-rule="evenodd" clip-rule="evenodd" d="M4.58317 0.916748C3.61071 0.916748 2.67808 1.30306 1.99045 1.99069C1.30281 2.67832 0.916504 3.61095 0.916504 4.58341V17.4167C0.916504 18.3892 1.30281 19.3218 1.99045 20.0095C2.67808 20.6971 3.61071 21.0834 4.58317 21.0834H17.4165C18.389 21.0834 19.3216 20.6971 20.0092 20.0095C20.6969 19.3218 21.0832 18.3892 21.0832 17.4167V4.58341C21.0832 3.61095 20.6969 2.67832 20.0092 1.99069C19.3216 1.30306 18.389 0.916748 17.4165 0.916748H4.58317ZM17.4165 2.75008H4.58317C4.09694 2.75008 3.63062 2.94324 3.28681 3.28705C2.94299 3.63087 2.74984 4.09718 2.74984 4.58341V17.4167C2.74984 17.903 2.94299 18.3693 3.28681 18.7131C3.63062 19.0569 4.09694 19.2501 4.58317 19.2501H17.4165C17.9027 19.2501 18.369 19.0569 18.7129 18.7131C19.0567 18.3693 19.2498 17.903 19.2498 17.4167V4.58341C19.2498 4.09718 19.0567 3.63087 18.7129 3.28705C18.369 2.94324 17.9027 2.75008 17.4165 2.75008Z" fill="black"/>
</g>
<defs>
<clipPath id="clip0_11079_2">
<rect width="22" height="22" fill="white"/>
</clipPath>
</defs>
</svg>
