<svg width="15" height="15" viewBox="0 0 15 15" fill="none" xmlns="http://www.w3.org/2000/svg">
<g clip-path="url(#clip0_11079_7)">
<path d="M14.9771 1.46688C14.9704 1.36894 14.9351 1.27513 14.8754 1.19716C14.8158 1.11918 14.7345 1.06048 14.6418 1.02839C14.549 0.996289 14.4488 0.992211 14.3537 1.01666C14.2587 1.04111 14.1729 1.09301 14.1071 1.16588C13.7802 1.53264 13.3546 1.79752 12.8811 1.92888C12.2427 1.3312 11.4007 0.999034 10.5261 0.999881C10.0614 1.00014 9.60123 1.09194 9.17196 1.27004C8.74269 1.44813 8.3527 1.70903 8.02426 2.03784C7.69582 2.36666 7.43536 2.75694 7.25775 3.18641C7.08014 3.61588 6.98886 4.07613 6.98912 4.54088V4.98088C3.99812 4.74988 2.40012 2.47688 1.96712 1.32488C1.93304 1.23359 1.87303 1.15425 1.79445 1.0966C1.71588 1.03896 1.62218 1.00554 1.52487 1.00044C1.42755 0.995342 1.33087 1.01879 1.24671 1.0679C1.16254 1.11701 1.09456 1.18965 1.05112 1.27688C0.0041244 3.37288 -0.156875 5.40688 0.604124 7.13888C1.27012 8.65588 2.61012 9.86388 4.51012 10.6649C3.64712 11.2759 2.19412 11.9999 0.500125 11.9999C0.392764 11.9997 0.288212 12.0342 0.201935 12.0981C0.115659 12.162 0.0522401 12.2519 0.0210611 12.3547C-0.0101179 12.4574 -0.00740133 12.5674 0.028809 12.6685C0.0650194 12.7696 0.1328 12.8563 0.222124 12.9159C1.84712 13.9999 3.55012 13.9999 5.13212 13.9999H5.18012C10.0411 13.9999 13.9801 10.0539 13.9801 5.18788V4.70888C14.3431 4.33888 14.6261 3.96188 14.8001 3.47288C14.9931 2.92688 15.0321 2.29488 14.9771 1.46688Z" fill="black"/>
</g>
<defs>
<clipPath id="clip0_11079_7">
<rect width="15" height="15" fill="white"/>
</clipPath>
</defs>
</svg>
