<svg width="16" height="13" viewBox="0 0 16 13" fill="none" xmlns="http://www.w3.org/2000/svg">
<path fill-rule="evenodd" clip-rule="evenodd" d="M8.00075 0.179932C5.82806 0.179932 5.55538 0.187437 4.70206 0.218098C3.85038 0.248908 3.26906 0.355409 2.76038 0.511729C2.23419 0.673135 1.78788 0.88905 1.34319 1.2405C0.898188 1.59175 0.624813 1.94438 0.419813 2.35992C0.2215 2.76188 0.0864999 3.22126 0.0481874 3.89384C0.00999988 4.56795 0 4.78352 0 6.49993C0 8.21634 0.00968755 8.43107 0.0483125 9.10523C0.0875001 9.77806 0.222312 10.2373 0.42 10.6392C0.6245 11.0548 0.897813 11.4074 1.34269 11.7587C1.78719 12.1103 2.2335 12.3267 2.75938 12.4881C3.26838 12.6444 3.84988 12.751 4.70138 12.7818C5.55475 12.8124 5.82725 12.8199 7.99975 12.8199C10.1726 12.8199 10.4444 12.8124 11.2978 12.7818C12.1494 12.751 12.7314 12.6444 13.2405 12.4881C13.7665 12.3267 14.2121 12.1103 14.6566 11.7587C15.1016 11.4074 15.375 11.0548 15.58 10.6393C15.7767 10.2373 15.9117 9.77791 15.9517 9.10533C15.99 8.43122 16 8.21634 16 6.49993C16 4.78352 15.99 4.5681 15.9517 3.89399C15.9117 3.22116 15.7767 2.76188 15.58 2.36007C15.375 1.94438 15.1016 1.59175 14.6566 1.2405C14.2116 0.888951 13.7666 0.672986 13.24 0.511729C12.7299 0.355409 12.1483 0.248908 11.2966 0.218098C10.4433 0.187437 10.1716 0.179932 7.99825 0.179932H8.00075ZM7.73394 1.31876H7.73413L8.00075 1.31881C10.1368 1.31881 10.3899 1.32488 11.2334 1.35515C12.0134 1.38334 12.4368 1.48629 12.7188 1.57279C13.0921 1.68734 13.3583 1.8243 13.6381 2.0455C13.9181 2.2667 14.0915 2.47738 14.2368 2.7723C14.3463 2.99483 14.4768 3.32924 14.5123 3.94544C14.5506 4.6117 14.559 4.81181 14.559 6.4985C14.559 8.18514 14.5506 8.38525 14.5123 9.05151C14.4766 9.66771 14.3463 10.0021 14.2368 10.2247C14.0918 10.5196 13.9181 10.7296 13.6381 10.9507C13.3581 11.1719 13.0923 11.3088 12.7188 11.4234C12.4371 11.5103 12.0134 11.613 11.2334 11.6411C10.3901 11.6714 10.1368 11.678 8.00075 11.678C5.86456 11.678 5.61138 11.6714 4.76806 11.6411C3.98806 11.6127 3.56469 11.5097 3.28256 11.4232C2.90919 11.3087 2.6425 11.1717 2.3625 10.9505C2.0825 10.7293 1.90919 10.5192 1.76388 10.2241C1.65438 10.0016 1.52388 9.66716 1.48838 9.05097C1.45 8.38476 1.44238 8.18459 1.44238 6.49692C1.44238 4.8092 1.45 4.61012 1.48838 3.94386C1.524 3.32766 1.65438 2.99325 1.76388 2.77047C1.90888 2.47551 2.0825 2.26487 2.3625 2.04368C2.6425 1.82248 2.90919 1.68551 3.28256 1.57072C3.56456 1.48382 3.98806 1.38112 4.76806 1.35278C5.50606 1.32646 5.79206 1.31856 7.28306 1.31723V1.31881C7.42238 1.31866 7.57225 1.31871 7.73394 1.31876ZM11.3111 3.12636C11.3111 2.70752 11.7411 2.36821 12.2711 2.36821V2.36797C12.8011 2.36797 13.2311 2.70766 13.2311 3.12636C13.2311 3.54506 12.8011 3.88476 12.2711 3.88476C11.7411 3.88476 11.3111 3.54506 11.3111 3.12636ZM8.00056 3.25434C5.73181 3.25439 3.89237 4.70758 3.89237 6.49993C3.89237 8.29233 5.73188 9.74488 8.00075 9.74488C10.2696 9.74488 12.1084 8.29233 12.1084 6.49993C12.1084 4.70753 10.2694 3.25434 8.00056 3.25434ZM10.6674 6.49993C10.6674 5.33637 9.47344 4.39327 8.00075 4.39327C6.52788 4.39327 5.33406 5.33637 5.33406 6.49993C5.33406 7.66335 6.52788 8.6066 8.00075 8.6066C9.47344 8.6066 10.6674 7.66335 10.6674 6.49993Z" fill="black"/>
</svg>
