<svg width="18" height="15" viewBox="0 0 18 15" fill="none" xmlns="http://www.w3.org/2000/svg">
<path d="M17 2.6784C16.3985 2.9336 15.7623 3.1033 15.1111 3.18229C15.7975 2.78592 16.3109 2.15892 16.5542 1.41972C15.9111 1.79028 15.2077 2.0515 14.4743 2.19214C14.0249 1.72421 13.441 1.39867 12.7985 1.25792C12.1561 1.11718 11.485 1.16774 10.8725 1.40303C10.2601 1.63833 9.73473 2.04744 9.36487 2.57709C8.99502 3.10675 8.79782 3.73239 8.79895 4.37254C8.79895 4.62552 8.82028 4.86813 8.87467 5.09934C7.56985 5.03721 6.29322 4.70799 5.12829 4.13323C3.96337 3.55846 2.93641 2.75109 2.11459 1.76394C1.83194 2.24087 1.66556 2.78726 1.66556 3.37513C1.66556 4.47933 2.25112 5.45807 3.12253 6.0252C2.60381 6.01126 2.09611 5.8765 1.64209 5.63225V5.66647C1.6427 6.40273 1.90443 7.11629 2.38316 7.68684C2.86189 8.25739 3.52834 8.65006 4.27018 8.79865C4.00247 8.87123 3.71022 8.90544 3.40837 8.90544C3.19825 8.90544 2.98707 8.89404 2.78761 8.85049C2.99977 9.48314 3.40826 10.0364 3.95696 10.4342C4.50566 10.8321 5.16764 11.055 5.85194 11.0724C4.69113 11.9555 3.25907 12.4345 1.78501 12.4326C1.51623 12.4326 1.25812 12.4212 1 12.3891C2.50007 13.3284 4.24786 13.8253 6.0322 13.8199C12.0681 13.8199 15.367 8.95935 15.367 4.74682C15.3664 4.60955 15.3625 4.47231 15.3553 4.33521C16.0024 3.88449 16.5597 3.32308 17 2.6784V2.6784Z" stroke="black" stroke-miterlimit="10" stroke-linecap="round" stroke-linejoin="round"/>
</svg>
