<svg width="16" height="13" viewBox="0 0 16 13" fill="none" xmlns="http://www.w3.org/2000/svg">
<path d="M13.2765 3.07106C13.2637 3.08518 12.1679 4.33616 9.47039 5.20646C9.68593 5.55531 9.88671 5.90972 10.0724 6.26912C12.4191 6.03574 14.7317 6.42784 14.8305 6.44398C14.8171 5.21225 14.2685 4.02151 13.2765 3.07106ZM10.4888 7.11992C11.3845 9.06498 11.749 10.6489 11.8188 10.9744C12.5943 10.5613 13.2542 10.0269 13.7577 9.40432C14.2613 8.7817 14.5977 8.08408 14.7462 7.35464C14.6048 7.319 12.6941 6.8408 10.4888 7.11992ZM10.6676 11.4674C10.5671 10.9959 10.1695 9.34343 9.20899 7.37011L9.16301 7.38222C5.13208 8.49128 3.81569 10.7282 3.80207 10.7531C4.76151 11.3455 5.90422 11.7241 7.11152 11.8497C8.31883 11.9753 9.54669 11.8433 10.6676 11.4674ZM8.94503 4.40207C11.5225 3.63938 12.4957 2.46911 12.5127 2.44893C11.2673 1.58016 9.66234 1.10146 8.00073 1.10312C7.44556 1.10312 6.90658 1.15625 6.39058 1.25445C6.49275 1.36273 7.77594 2.7072 8.94503 4.40207ZM8.74237 6.4756C8.56852 6.16576 8.38368 5.85984 8.18806 5.55821C4.66973 6.39018 1.2953 6.33032 1.17439 6.32696C1.17269 6.3848 1.16843 6.44129 1.16843 6.49914C1.16843 7.8853 1.83088 9.14973 2.91908 10.1041C2.91652 10.1021 4.78638 7.48176 8.4733 6.54016C8.56248 6.51732 8.65218 6.49579 8.74237 6.4756ZM15.8369 5.22731C16.1617 6.48003 15.999 7.78104 15.3703 8.95939C15.1695 9.33535 14.9225 9.69487 14.6329 10.0328C14.3458 10.3683 14.0191 10.6815 13.6571 10.9684C13.2936 11.2538 12.8974 11.5121 12.4736 11.7398C11.1522 12.4438 9.59463 12.82 8.00073 12.8199C6.93094 12.8192 5.87207 12.65 4.88601 12.3222C4.41034 12.1626 3.95501 11.9676 3.52619 11.7398C2.6755 11.2845 1.94261 10.7051 1.36682 10.0328C0.780712 9.34907 0.371268 8.58065 0.161976 7.77163C-0.0539921 6.9321 -0.0539921 6.06684 0.161976 5.22731C0.475402 4.01544 1.23385 2.90336 2.34262 2.02992C3.07267 1.4543 3.93579 0.994697 4.88515 0.676041C5.87125 0.348597 6.93019 0.179932 7.99988 0.179932C9.06957 0.179932 10.1285 0.348597 11.1146 0.676041C11.5905 0.835424 12.0456 1.03094 12.4736 1.25983C14.2063 2.18566 15.4131 3.60919 15.8369 5.22731ZM7.62267 4.72759C6.8525 3.65385 6.00532 2.61573 5.08525 1.61831C4.13154 1.97434 3.29496 2.49974 2.6409 3.15346C1.98684 3.80718 1.53302 4.5715 1.31488 5.38671C1.4954 5.38805 4.34191 5.4163 7.62267 4.72759Z" fill="#414753"/>
</svg>
