<svg width="87" height="48" viewBox="0 0 87 48" fill="none" xmlns="http://www.w3.org/2000/svg">
<mask id="path-1-inside-1_10_654" fill="white">
<path d="M79.9705 34.0009C77.8948 37.5231 74.7746 40.3122 71.0426 41.9815C67.3106 43.6507 63.1516 44.1174 59.1424 43.3168C55.1333 42.5162 51.4725 40.488 48.6679 37.5134C45.8632 34.5388 44.0535 30.7652 43.4899 26.7159C42.9262 22.6666 43.6364 18.5423 45.522 14.9148C47.4076 11.2873 50.3753 8.33634 54.0133 6.47119C57.6514 4.60604 61.7797 3.91908 65.8258 4.50559C69.8718 5.09209 73.6351 6.92298 76.5939 9.74438L62.9999 24L79.9705 34.0009Z"/>
</mask>
<path d="M79.9705 34.0009C77.8948 37.5231 74.7746 40.3122 71.0426 41.9815C67.3106 43.6507 63.1516 44.1174 59.1424 43.3168C55.1333 42.5162 51.4725 40.488 48.6679 37.5134C45.8632 34.5388 44.0535 30.7652 43.4899 26.7159C42.9262 22.6666 43.6364 18.5423 45.522 14.9148C47.4076 11.2873 50.3753 8.33634 54.0133 6.47119C57.6514 4.60604 61.7797 3.91908 65.8258 4.50559C69.8718 5.09209 73.6351 6.92298 76.5939 9.74438L62.9999 24L79.9705 34.0009Z" fill="#E5E5E5" stroke="black" stroke-width="2" mask="url(#path-1-inside-1_10_654)"/>
<circle cx="19.5" cy="24.5" r="19" fill="white" stroke="black"/>
</svg>
