<svg width="152" height="88" viewBox="0 0 152 88" fill="none" xmlns="http://www.w3.org/2000/svg">
<path d="M69.5244 43.9764C69.5244 61.8982 54.101 76.4764 35.0122 76.4764C15.9233 76.4764 0.5 61.8982 0.5 43.9764C0.5 26.0547 15.9233 11.4764 35.0122 11.4764C54.101 11.4764 69.5244 26.0547 69.5244 43.9764Z" fill="#C4C4C4" stroke="black"/>
<mask id="path-2-inside-1_7_73" fill="white">
<path d="M129.378 20.2567C124.15 15.4905 117.477 12.3772 110.286 11.3494C103.094 10.3216 95.7419 11.4302 89.2497 14.5214C82.7575 17.6125 77.4478 22.5326 74.0583 28.5982C70.6688 34.6639 69.3677 41.5739 70.3357 48.3684C71.3038 55.163 74.4929 61.5047 79.4601 66.5126C84.4273 71.5206 90.926 74.9461 98.0534 76.3134C105.181 77.6807 112.583 76.9219 119.232 74.1423C125.881 71.3628 131.446 66.7005 135.155 60.8032L105.036 43.9764L129.378 20.2567Z"/>
</mask>
<path d="M129.378 20.2567C124.15 15.4905 117.477 12.3772 110.286 11.3494C103.094 10.3216 95.7419 11.4302 89.2497 14.5214C82.7575 17.6125 77.4478 22.5326 74.0583 28.5982C70.6688 34.6639 69.3677 41.5739 70.3357 48.3684C71.3038 55.163 74.4929 61.5047 79.4601 66.5126C84.4273 71.5206 90.926 74.9461 98.0534 76.3134C105.181 77.6807 112.583 76.9219 119.232 74.1423C125.881 71.3628 131.446 66.7005 135.155 60.8032L105.036 43.9764L129.378 20.2567Z" fill="#696969" stroke="black" stroke-width="2" mask="url(#path-2-inside-1_7_73)"/>
</svg>
